<svg xmlns="http://www.w3.org/2000/svg" version="1.0" preserveAspectRatio="xMidYMid meet" width="240.000000pt" height="240.000000pt" viewBox="30 37 180.61 147.94">

<g transform="translate(0.000000,256.000000) scale(0.100000,-0.100000)" fill="#9CD91B" stroke="none">
<path d="M1190 2101 c-83 -27 -121 -66 -141 -144 -9 -39 -9 -58 5 -112 20 -79 20 -73 -6 -77 -44 -6 -31 -78 13 -78 12 0 21 -10 25 -27 10 -43 43 -105 73 -136 102 -111 263 -52 313 114 10 30 20 44 40 51 28 10 44 40 33 59 -4 5 -17 14 -30 19 -23 9 -23 10 -9 56 18 61 18 96 -1 142 -21 50 -51 79 -108 109 -53 26 -162 39 -207 24z m23 -208 c64 -17 70 -17 139 1 l72 19 24 -29 c24 -27 24 -32 18 -123 -10 -136 -52 -218 -132 -256 -49 -23 -95 -13 -146 33 -61 55 -80 108 -86 230 -4 89 -2 105 13 122 22 24 15 24 98 3z m-138 -153 c3 -6 -1 -13 -10 -16 -19 -8 -30 0 -20 15 8 14 22 14 30 1z m445 -5 c0 -8 -7 -15 -15 -15 -8 0 -15 7 -15 15 0 8 7 15 15 15 8 0 15 -7 15 -15z"/>
<path d="M1320 1827 c0 -11 14 -16 53 -19 28 -2 54 -3 56 -1 12 9 -20 23 -62 29 -38 6 -47 4 -47 -9z"/>
<path d="M1137 1823 c-17 -17 -2 -23 53 -23 47 0 60 3 60 15 0 11 -13 15 -53 15 -30 0 -57 -3 -60 -7z"/>
<path d="M1150 1766 c-11 -14 -6 -16 40 -16 37 0 50 4 48 13 -7 19 -72 21 -88 3z"/>
<path d="M1340 1765 c-11 -13 -5 -15 40 -15 45 0 51 2 40 15 -7 8 -25 15 -40 15 -15 0 -33 -7 -40 -15z"/>
<path d="M1190 1658 c0 -19 31 -68 49 -78 51 -26 117 6 135 67 7 21 7 21 -42 6 -45 -15 -54 -15 -96 -1 -25 8 -46 11 -46 6z"/>
<path d="M1036 1364 c-94 -34 -148 -94 -162 -182 l-7 -42 249 2 249 3 3 27 c4 34 36 58 77 58 22 0 41 -10 65 -35 50 -51 108 -56 153 -10 15 15 19 14 46 -6 39 -28 95 -28 127 2 24 22 24 22 45 3 23 -20 49 -73 49 -99 0 -25 -38 -55 -69 -55 -25 0 -37 -11 -77 -65 -26 -36 -49 -63 -52 -61 -2 2 -7 35 -10 73 l-7 68 -197 3 -198 2 0 -286 c0 -224 -3 -285 -12 -282 -10 4 -14 72 -16 287 l-2 281 -217 -2 -218 -3 -12 -90 c-7 -49 -14 -94 -16 -99 -2 -5 -34 32 -72 82 -58 76 -75 92 -97 92 -58 0 -77 69 -35 131 21 31 67 53 67 32 0 -5 7 -18 15 -29 13 -17 14 -16 8 17 -5 34 -2 38 28 54 19 10 48 21 64 26 30 8 30 8 -5 5 -19 -1 -41 -5 -49 -7 -10 -3 -17 6 -20 23 -8 37 -26 22 -26 -22 0 -32 -3 -35 -32 -38 -63 -6 -121 -109 -95 -168 15 -32 184 -264 210 -287 28 -26 80 -19 104 14 11 14 37 73 58 130 38 100 39 102 39 59 1 -25 -6 -139 -14 -255 -8 -115 -15 -229 -15 -252 l0 -43 335 0 335 0 0 63 c0 34 -7 152 -15 262 -18 251 -18 270 6 166 10 -46 25 -94 34 -107 18 -28 56 -40 82 -26 10 6 62 71 116 145 105 146 112 167 81 234 -10 19 -27 41 -39 49 -13 8 -25 28 -29 45 -14 69 -95 102 -147 60 -24 -19 -24 -19 -57 10 -22 20 -44 29 -66 29 -18 0 -53 7 -76 15 -55 19 -57 19 -65 -6 -4 -11 -20 -36 -37 -55 -35 -39 -118 -69 -165 -58 -56 13 -111 52 -130 94 -20 43 -29 46 -87 24z m614 -54 c27 -27 26 -65 -2 -84 -33 -23 -103 -21 -128 4 -45 45 -9 100 65 100 32 0 51 -6 65 -20z m130 -55 c0 -20 -5 -25 -24 -25 -14 0 -28 5 -31 10 -12 19 4 40 30 40 20 0 25 -5 25 -25z"/>
</g>
</svg>