<svg version="1.0" xmlns="http://www.w3.org/2000/svg"
 width="256.000000pt" height="256.000000pt" viewBox="0 0 256.000000 256.000000"
 preserveAspectRatio="xMidYMid meet">

<g transform="translate(0.000000,256.000000) scale(0.100000,-0.100000)"
fill="#000000" stroke="none">
<path d="M667 2059 c-41 -22 -82 -77 -92 -126 -13 -66 32 -155 96 -188 40 -21
127 -19 165 4 l31 19 6 -64 c7 -88 40 -150 100 -191 26 -17 67 -35 90 -38 l43
-7 -3 -191 c-2 -106 -8 -245 -13 -309 -6 -64 -10 -192 -10 -285 l0 -169 -32
-9 c-19 -6 -34 -18 -36 -28 -3 -16 3 -18 64 -15 l68 3 12 108 c7 59 20 143 29
188 19 98 83 321 94 332 18 18 110 -390 126 -560 l7 -73 69 0 c38 0 69 4 69 9
0 16 -30 41 -49 41 -20 0 -21 23 -37 700 l-6 255 53 13 c102 24 167 104 177
218 2 35 7 64 11 64 3 -1 17 -7 31 -15 41 -23 131 -19 171 8 94 63 113 183 42
268 -47 56 -135 75 -206 45 -41 -17 -93 -76 -102 -115 l-7 -31 -99 0 -99 0 0
29 c0 50 -29 74 -96 79 -33 2 -78 -1 -101 -7 -51 -14 -103 -55 -103 -82 0 -17
-8 -19 -100 -19 -87 0 -100 2 -100 17 0 9 -11 35 -25 59 -45 77 -156 107 -238
63z m119 -104 c15 -23 15 -27 0 -50 -9 -14 -25 -25 -36 -25 -21 0 -60 33 -60
51 0 51 67 68 96 24z m1078 -7 c17 -50 -42 -89 -78 -52 -19 19 -21 55 -4 72 7
7 26 12 43 10 22 -2 32 -10 39 -30z m-499 -38 c-9 -14 14 -60 30 -60 11 0 15
-11 15 -41 0 -33 -6 -47 -33 -74 -39 -39 -72 -50 -123 -41 -55 11 -95 53 -101
106 -4 40 -2 46 19 55 12 6 24 20 26 33 3 17 10 22 35 22 18 0 48 8 67 18 31
16 37 16 52 4 10 -8 15 -18 13 -22z m-245 -49 c0 -11 5 -23 10 -26 6 -3 10
-22 10 -40 0 -24 9 -45 30 -68 21 -25 30 -45 30 -70 0 -30 -4 -37 -31 -46 -74
-25 -139 -1 -186 68 -28 41 -53 122 -53 168 l0 33 95 0 c87 0 95 -2 95 -19z
m513 -1 c3 -11 -5 -55 -18 -96 -41 -134 -122 -189 -224 -153 -27 9 -31 16 -31
46 0 24 9 45 28 67 17 20 32 54 41 94 l13 62 93 0 c85 0 93 -2 98 -20z m-281
-223 c2 -27 -2 -53 -8 -58 -35 -29 -152 -14 -140 18 3 8 6 31 6 51 l0 37 69 0
69 0 4 -48z"/>
<path d="M1270 1835 c0 -14 5 -25 10 -25 6 0 10 11 10 25 0 14 -4 25 -10 25
-5 0 -10 -11 -10 -25z"/>
<path d="M1239 1770 c13 -11 31 -20 41 -20 10 0 28 9 41 20 l24 19 -65 0 -65
0 24 -19z"/>
</g>
</svg>
