<svg xmlns="http://www.w3.org/2000/svg" viewBox="0 0 550.62 94.9"><defs><style>.cls-1{fill:#9CD91B;}</style></defs><g id="Layer_2" data-name="Layer 2"><g id="Layer_1-2" data-name="Layer 1"><path class="cls-1" d="M26.39,63c4.06-3.13,13.12-.54,21.52,6.91a9.3,9.3,0,0,0,1.41,4.2c4.87,7.45,21.79,6.88,42.12-.24a37.46,37.46,0,0,1-7.37,9.38C69.23,96.84,41.39,99.36,29.94,86.44,23.73,79.42,21.42,66.82,26.39,63ZM97,27.8a20.31,20.31,0,0,1,1.82,10.94c-17.46-6.07-35.36-1.84-44.47,9.92-6.1,7.89-6.56,17-6.47,21.23-12.32,3.63-22,4.15-23.8.65-1.32-2.63,1.57-8.14,3.3-10.7,2.2-3.26,3.54-3.28,4.47-5.81,1.39-3.79-.61-6.5-1.14-10.67-.8-6.34,2.33-11.63,4.14-14.69,7.65-12.94,26.44-13.66,30-13.8C67.49,14.76,90.14,13.86,97,27.8ZM78.88,47.34,76.65,59q-.83,3.56-2.74,4.87a8.14,8.14,0,0,1-5,1.22H36.26l2.43-11.77q.72-3.55,2.64-4.87a8.14,8.14,0,0,1,5-1.22Z"/><path class="cls-1" d="M142.26,38.28q-6.9,0-10.45,3.35a18.1,18.1,0,0,0-5,9.24L117,94.9H96.19l10-44q6.18-27.4,34.7-27h21.11l-3.25,14.4ZM166,23.88H186.6l-15.72,71H150.07l5.69-25.46H127.14l2.44-11.78c.47-2.36,1.35-4,2.64-4.87a8.16,8.16,0,0,1,5-1.21l22.63.1Z"/><path class="cls-1" d="M190.67,40.41l3.55-16.54h71.54l-2.34,10.55q-.81,3.55-3,4.88a10.41,10.41,0,0,1-5.68,1.21ZM225.78,94.9H205l11.27-50.73h20.6Z"/><path class="cls-1" d="M331.34,23.87a67.56,67.56,0,0,1,7.61.31,6.92,6.92,0,0,1,3.76,1.37,4.15,4.15,0,0,1,1.21,3.29,24.91,24.91,0,0,1-.81,5.08q-2,8.8-4.06,17.65-1.37,5.9-2.74,11.77c-.54,2.37-1.55,4-3,4.87a10.39,10.39,0,0,1-5.68,1.22c-21.67,2.36-38-.17-40.48-7.5a7.39,7.39,0,0,1,0-4.27,8.12,8.12,0,0,1,3-4.87c2.62-1.85,5.69-1.25,6.88-1,5.75,1.12,6.64,5.57,11.2,7.31,2.63,1,6.81,1.23,13.46-2.6a11.87,11.87,0,0,1-3-12.16,11.1,11.1,0,0,1,4.91-5.64l-36.83-.1L274.32,94.9H253.51q2-9.29,4.11-18.16c1.67-7.19,2.15-9,3.33-14.08,6.32-26.87,7.29-36.56,13.54-38.38a11,11,0,0,1,2.92-.24c8.78-.27,15.94-.33,21.15-.32,17.94.2,25.18.22,26.9.15ZM301.61,72.48h21.21l3.85,22.42H311.35q-3.56,0-5.07-1.93a11.28,11.28,0,0,1-2-5.48Z"/><path class="cls-1" d="M385.69,38.28q-6.9,0-10.45,3.35a18.18,18.18,0,0,0-5,9.23l-9.84,44h-20.8l10-44q6.19-27.39,34.7-27h21.11l-3.25,14.41Zm23.75-14.41H430l-15.73,71h-20.8l5.68-25.47H370.57L373,57.66q.71-3.55,2.64-4.87a8.16,8.16,0,0,1,5-1.22l22.63.11Z"/><path class="cls-1" d="M450.16,94.82h-20.8l15.93-71h20.6Z"/><path class="cls-1" d="M465.89,94.82l15.93-71h20.6l-15.73,71Zm84.73-71-16,70.82.1.2H522.31a9,9,0,0,1-5.68-1.52,10,10,0,0,1-3-4.66L500.29,52.31l6-27.91a6.4,6.4,0,0,1,2.94,1.93,11.57,11.57,0,0,1,1.93,3.55L521.9,59.51l7.92-35.71Z"/><path class="cls-1" d="M0,54.47c2.11-2,3.76-3.68,4.75-4.67,4.61-4.57,6.05-6.14,8.39-6.32a6.89,6.89,0,0,1,3.86.94l10.06,6.73q-1.83,2.79-3.67,5.58a10.79,10.79,0,0,1-6,4.73,10.93,10.93,0,0,1-8.31-.91Z"/><circle class="cls-1" cx="307.13" cy="9.89" r="9.89"/></g></g></svg>