<svg xmlns="http://www.w3.org/2000/svg" viewBox="0 0 90.41 94.9"><defs><style>.cls-1{fill:#9CD91B;}</style></defs><g id="Layer_2" data-name="Layer 2"><g id="Layer_1-2" data-name="Layer 1"><path class="cls-1" d="M77.83,23.87a67.56,67.56,0,0,1,7.61.31,6.85,6.85,0,0,1,3.75,1.37,4.16,4.16,0,0,1,1.22,3.29,24.91,24.91,0,0,1-.81,5.08q-2,8.8-4.06,17.65-1.37,5.9-2.74,11.77c-.54,2.37-1.56,4-3,4.87a10.42,10.42,0,0,1-5.69,1.22c-21.66,2.36-38-.17-40.47-7.5a7.3,7.3,0,0,1,0-4.27,8.07,8.07,0,0,1,3-4.87c2.61-1.85,5.68-1.25,6.88-1,5.74,1.12,6.63,5.57,11.2,7.31,2.62,1,6.8,1.23,13.46-2.6a11.87,11.87,0,0,1-3-12.16,11.1,11.1,0,0,1,4.91-5.64l-36.84-.1L20.8,94.9H0q2-9.29,4.1-18.16c1.67-7.19,2.16-9,3.34-14.08C13.76,35.79,14.72,26.1,21,24.28A10.88,10.88,0,0,1,23.9,24c8.77-.27,15.94-.33,21.15-.32,17.94.2,25.18.22,26.89.15ZM48.1,72.48H69.31L73.16,94.9H57.84q-3.56,0-5.07-1.93a11.18,11.18,0,0,1-2-5.48Z"/><circle class="cls-1" cx="53.62" cy="9.89" r="9.89"/></g></g></svg>