<svg width="316" height="316" viewBox="0 0 316 316" fill="none" xmlns="http://www.w3.org/2000/svg">
<path d="M158 278.883C241.139 278.883 308.536 239.971 308.536 191.97C308.536 143.969 241.139 105.057 158 105.057C74.8612 105.057 7.46387 143.969 7.46387 191.97C7.46387 239.971 74.8612 278.883 158 278.883Z" fill="#F5F5F5"/>
<path d="M27.9854 160.825L208.908 265.282L293.173 216.631L112.256 112.18L27.9854 160.825Z" fill="#E0E0E0"/>
<path d="M43.495 206.778C50.2943 206.778 55.8063 203.595 55.8063 199.668C55.8063 195.741 50.2943 192.558 43.495 192.558C36.6956 192.558 31.1836 195.741 31.1836 199.668C31.1836 203.595 36.6956 206.778 43.495 206.778Z" fill="#E0E0E0"/>
<path d="M226.275 151.484C242.153 151.484 255.025 144.054 255.025 134.888C255.025 125.722 242.153 118.292 226.275 118.292C210.397 118.292 197.526 125.722 197.526 134.888C197.526 144.054 210.397 151.484 226.275 151.484Z" fill="#E0E0E0"/>
<path d="M251.901 130.48C266.053 116.328 266.053 93.3829 251.901 79.2307C237.748 65.0786 214.803 65.0786 200.651 79.2307C186.499 93.3829 186.499 116.328 200.651 130.48C214.803 144.632 237.748 144.632 251.901 130.48Z" fill="#9CD91B"/>
<path opacity="0.3" d="M251.901 130.48C266.053 116.328 266.053 93.3829 251.901 79.2307C237.748 65.0786 214.803 65.0786 200.651 79.2307C186.499 93.3829 186.499 116.328 200.651 130.48C214.803 144.632 237.748 144.632 251.901 130.48Z" fill="black"/>
<path opacity="0.1" d="M217.092 74.1651C213.704 75.8209 210.361 78.8735 210.683 82.6275C210.823 83.636 211.161 84.6069 211.677 85.4843C212.193 86.3618 212.878 87.1285 213.692 87.7404C215.325 88.9512 217.113 89.9395 219.007 90.6792L238.081 99.1038C239.922 100.015 241.878 100.674 243.895 101.063C244.906 101.25 245.945 101.23 246.949 101.005C247.952 100.781 248.9 100.355 249.735 99.7547C252.326 97.6691 252.579 93.8013 251.953 90.5339C248.938 74.8223 231.034 67.3395 217.092 74.1651Z" fill="white"/>
<g opacity="0.2">
<path d="M209.577 76.7436C209.925 78.4879 211.41 79.9036 213.755 80.681C216.364 81.4057 219.107 81.5052 221.763 80.9716C224.418 80.4379 226.91 79.2861 229.036 77.6095C230.894 75.9789 231.722 74.1145 231.375 72.3639C231.052 70.7649 229.769 69.463 227.76 68.6477C226.982 68.6161 226.205 68.6098 225.421 68.6477C225.955 68.7423 226.481 68.8754 226.995 69.0459C229.112 69.76 230.452 70.9924 230.755 72.5092C231.059 74.026 230.3 75.6692 228.619 77.1544C225.048 80.3144 218.469 81.6227 213.957 80.0995C211.833 79.3854 210.5 78.153 210.165 76.6362C209.83 75.1194 210.614 73.4762 212.295 71.991C212.82 71.5327 213.387 71.1244 213.988 70.7712C213.211 71.043 212.453 71.3527 211.707 71.675C210.007 73.255 209.236 75.0499 209.577 76.7436Z" fill="black"/>
<path d="M193.143 119.525L193.089 119.404L193.143 119.525Z" fill="black"/>
<path d="M258.792 88.8403C258.849 88.9541 258.899 89.0679 258.956 89.1753L258.792 88.8403Z" fill="black"/>
<path d="M193.582 120.503L193.841 121.015L193.582 120.503Z" fill="black"/>
<path d="M260.656 116.288C259.216 118.811 257.349 121.064 255.138 122.949C243.32 133.352 221.567 137.732 206.664 132.72C203.894 131.834 201.299 130.472 198.998 128.694C199.661 129.459 200.357 130.186 201.077 130.887C202.783 131.88 204.588 132.693 206.462 133.314C214.046 135.842 223.305 136.032 232.19 134.243C241.076 132.454 249.583 128.719 255.574 123.455C257.062 122.159 258.411 120.712 259.6 119.138C259.98 118.184 260.333 117.261 260.656 116.288Z" fill="black"/>
<path d="M254.273 112.098C241.835 123.05 218.944 127.645 203.251 122.342C197.285 120.333 193.063 117.147 191.022 113.191C191.186 113.905 191.37 114.613 191.578 115.308C193.948 118.563 197.86 121.192 203.049 122.943C210.993 125.623 220.745 125.806 230.105 123.929C239.465 122.052 248.395 118.114 254.69 112.553C258.804 108.931 261.395 104.969 262.318 101.069C262.242 100.355 262.141 99.6347 262.021 98.9205C261.648 103.376 258.994 107.945 254.273 112.098Z" fill="black"/>
<path d="M262.476 106.707C262.476 106.852 262.476 106.998 262.444 107.143C262.457 106.998 262.463 106.852 262.476 106.707Z" fill="black"/>
<path d="M247.567 75.5366L247.896 75.7705L247.567 75.5366Z" fill="black"/>
<path d="M203.099 101.076C209.729 103.313 217.876 103.465 225.681 101.897C233.486 100.33 240.95 97.0497 246.202 92.4172C250.537 88.6252 252.851 84.3528 252.888 80.2448C252.674 80.011 252.452 79.7898 252.256 79.5686C252.484 83.6956 250.247 88.0374 245.81 91.9432C235.426 101.063 216.371 104.912 203.302 100.488C197.696 98.5918 193.954 95.4634 192.558 91.564C192.444 91.8547 192.324 92.1454 192.216 92.4424C193.853 96.2028 197.62 99.2238 203.099 101.076Z" fill="black"/>
<path d="M190.232 101.423C191.818 106.024 196.179 109.702 202.688 111.895C210.089 114.423 219.19 114.569 227.905 112.818C236.62 111.067 244.969 107.402 250.821 102.232C255.985 97.6942 258.576 92.613 258.26 87.7529C257.995 87.2599 257.723 86.7733 257.432 86.293C258.443 91.3869 255.947 96.879 250.404 101.764C238.82 111.952 217.502 116.231 202.891 111.301C195.888 108.938 191.464 104.842 190.428 99.7609C190.345 100.311 190.282 100.861 190.225 101.417L190.232 101.423Z" fill="black"/>
<path d="M190.074 103.155C190.074 102.921 190.074 102.687 190.118 102.453C190.099 102.687 190.087 102.921 190.074 103.155Z" fill="black"/>
<path d="M246.531 74.8079L246.227 74.6011L246.531 74.8079Z" fill="black"/>
<path d="M206.209 90.2368C211.265 91.9495 217.503 92.0633 223.469 90.8688C229.435 89.6743 235.136 87.1653 239.149 83.6324C242.789 80.4219 244.565 76.8195 244.236 73.394C244.003 73.2613 243.781 73.1286 243.548 73.0022C244.072 76.3581 242.378 79.9542 238.732 83.1584C230.851 90.1104 216.353 92.9987 206.411 89.6427C201.81 88.088 198.827 85.4336 198.05 82.1409C197.886 82.3432 197.721 82.558 197.563 82.7729C198.581 86.0467 201.608 88.6884 206.209 90.2368Z" fill="black"/>
<path d="M195.093 86.3942L195.345 85.9771L195.093 86.3942Z" fill="black"/>
<path d="M196.217 84.6183C196.129 84.7447 196.046 84.8774 195.958 85.0101L196.217 84.6183Z" fill="black"/>
</g>
<path opacity="0.1" d="M217.041 125.604C195.452 117.312 192.229 101.392 193.936 88.5494C191.548 93.288 190.23 98.493 190.074 103.797C189.919 109.101 190.93 114.374 193.037 119.244C195.143 124.114 198.294 128.462 202.265 131.981C206.237 135.5 210.933 138.104 216.021 139.609C221.109 141.114 226.466 141.482 231.713 140.69C236.959 139.897 241.968 137.961 246.384 135.02C250.801 132.079 254.517 128.204 257.272 123.669C260.026 119.133 261.751 114.049 262.324 108.773C260.656 119.871 238.612 133.889 217.041 125.604Z" fill="black"/>
<path d="M27.9854 156.281L208.908 260.738L293.173 212.086L112.256 107.629L27.9854 156.281Z" fill="#9CD91B"/>
<path opacity="0.8" d="M27.9854 156.281L208.908 260.738L293.173 212.086L112.256 107.629L27.9854 156.281Z" fill="white"/>
<path opacity="0.05" d="M216.776 224.676C218.672 225.03 220.764 225.004 222.464 225.94C223.584 226.696 224.641 227.542 225.624 228.468C228.711 231.343 232.782 232.927 237 232.892C240.995 232.987 250.228 230.364 250.272 225.162C250.317 221.927 246.708 220.106 243.712 218.842C226.667 211.867 211.724 200.586 200.344 186.105C196.116 180.701 192.223 174.729 186.32 171.215C182.56 168.984 178.237 167.935 174.015 166.791C150.97 160.569 128.975 150.963 108.749 138.288C112.489 130.916 115.089 123.018 116.459 114.866C111.542 113.147 106.783 117.394 101.923 119.29C98.131 120.775 94.339 120.724 90.547 120.137L74.4436 129.433C75.1135 131.797 76.1879 134.098 76.9211 136.455C78.046 140.045 78.1851 144.488 75.36 146.997C73.7484 148.438 71.5175 148.893 69.3939 149.329L60.5459 151.086C58.0179 151.585 55.0981 152.388 54.1122 154.77C52.9051 157.684 55.471 160.793 58.1633 162.443C63.1751 165.521 69.1475 166.513 74.6711 168.529C87.6208 173.25 97.7581 183.444 109.817 190.118C118.199 194.753 127.432 197.642 136.961 198.612C146.801 199.617 156.831 198.555 166.532 200.445C174.161 201.93 181.922 204.016 189.398 206.266C193.463 207.414 197.357 209.099 200.976 211.277C202.779 212.394 204.452 213.708 205.963 215.196C207.41 216.643 208.396 218.52 209.666 220.132C211.619 222.666 213.768 224.107 216.776 224.676Z" fill="black"/>
<path d="M27.9854 156.281V157.924L208.908 262.375V260.738L27.9854 156.281Z" fill="#9CD91B"/>
<path opacity="0.6" d="M27.9854 156.281V157.924L208.908 262.375V260.738L27.9854 156.281Z" fill="white"/>
<path d="M208.908 260.738L293.173 212.086V213.73L208.908 262.375V260.738Z" fill="#9CD91B"/>
<path opacity="0.45" d="M208.908 260.738L293.173 212.086V213.73L208.908 262.375V260.738Z" fill="white"/>
<path d="M52.1589 184.481C51.804 183.193 51.3212 181.944 50.718 180.752C50.6611 180.619 50.5916 180.486 50.522 180.347C49.9482 179.234 49.6578 177.997 49.6765 176.744C49.6953 175.492 50.0226 174.264 50.6295 173.168C50.6674 173.092 50.7116 173.016 50.7559 172.94C51.5018 171.669 51.8864 170.218 51.8682 168.744C51.8237 167.93 51.5803 167.14 51.1594 166.443C50.7385 165.745 50.1529 165.162 49.454 164.743C49.0938 164.537 48.7201 164.355 48.3353 164.2C47.978 164.062 47.6708 163.819 47.4542 163.503C47.2376 163.187 47.1217 162.813 47.1219 162.43V160.237H40.113V162.424C40.1122 162.808 39.9945 163.184 39.7755 163.5C39.5565 163.816 39.2466 164.058 38.8869 164.193C38.4992 164.342 38.1232 164.52 37.762 164.724C37.0604 165.138 36.4708 165.717 36.0445 166.411C35.6182 167.105 35.3681 167.893 35.3161 168.706C35.2849 170.189 35.6586 171.653 36.3968 172.94C36.4348 173.016 36.479 173.086 36.5169 173.155C37.1171 174.259 37.4363 175.494 37.4462 176.751C37.4561 178.007 37.1565 179.247 36.5738 180.36C36.5043 180.493 36.4411 180.626 36.3779 180.758C35.765 181.943 35.2717 183.186 34.9053 184.468C34.6552 185.716 34.5408 186.987 34.564 188.26L34.5261 198.461C34.5261 199.781 35.3856 201.109 37.13 202.12C38.6876 202.975 40.4131 203.479 42.186 203.599C43.0272 203.668 43.8727 203.668 44.714 203.599C46.483 203.486 48.2072 202.994 49.77 202.158C51.5206 201.159 52.3991 199.838 52.4054 198.517V191.142C52.4054 190.226 52.4496 189.246 52.4496 188.304C52.4963 187.023 52.3988 185.74 52.1589 184.481Z" fill="#9CD91B"/>
<path opacity="0.3" d="M52.1589 184.481C51.804 183.193 51.3212 181.944 50.718 180.752C50.6611 180.619 50.5916 180.486 50.522 180.347C49.9482 179.234 49.6578 177.997 49.6765 176.744C49.6953 175.492 50.0226 174.264 50.6295 173.168C50.6674 173.092 50.7116 173.016 50.7559 172.94C51.5018 171.669 51.8864 170.218 51.8682 168.744C51.8237 167.93 51.5803 167.14 51.1594 166.443C50.7385 165.745 50.1529 165.162 49.454 164.743C49.0938 164.537 48.7201 164.355 48.3353 164.2C47.978 164.062 47.6708 163.819 47.4542 163.503C47.2376 163.187 47.1217 162.813 47.1219 162.43V160.237H40.113V162.424C40.1122 162.808 39.9945 163.184 39.7755 163.5C39.5565 163.816 39.2466 164.058 38.8869 164.193C38.4992 164.342 38.1232 164.52 37.762 164.724C37.0604 165.138 36.4708 165.717 36.0445 166.411C35.6182 167.105 35.3681 167.893 35.3161 168.706C35.2849 170.189 35.6586 171.653 36.3968 172.94C36.4348 173.016 36.479 173.086 36.5169 173.155C37.1171 174.259 37.4363 175.494 37.4462 176.751C37.4561 178.007 37.1565 179.247 36.5738 180.36C36.5043 180.493 36.4411 180.626 36.3779 180.758C35.765 181.943 35.2717 183.186 34.9053 184.468C34.6552 185.716 34.5408 186.987 34.564 188.26L34.5261 198.461C34.5261 199.781 35.3856 201.109 37.13 202.12C38.6876 202.975 40.4131 203.479 42.186 203.599C43.0272 203.668 43.8727 203.668 44.714 203.599C46.483 203.486 48.2072 202.994 49.77 202.158C51.5206 201.159 52.3991 199.838 52.4054 198.517V191.142C52.4054 190.226 52.4496 189.246 52.4496 188.304C52.4963 187.023 52.3988 185.74 52.1589 184.481Z" fill="black"/>
<path opacity="0.1" d="M50.6294 173.168C50.6673 173.092 50.7116 173.016 50.7558 172.94C51.3825 171.851 51.7481 170.631 51.8239 169.376C51.674 169.883 51.4617 170.369 51.1919 170.823C50.3301 172.092 49.262 173.207 48.0319 174.122C46.8311 175.102 45.5039 176.214 45.3522 177.756C45.2005 179.298 46.256 180.607 47.4568 181.51C48.6576 182.414 50.0543 183.046 51.135 184.095C51.5948 184.558 52.0037 185.069 52.3548 185.618C52.3132 185.24 52.252 184.865 52.1715 184.493C51.8133 183.201 51.3263 181.947 50.7179 180.752C50.661 180.619 50.5915 180.487 50.522 180.347C49.9481 179.234 49.6577 177.997 49.6765 176.744C49.6952 175.492 50.0225 174.264 50.6294 173.168Z" fill="black"/>
<path d="M38.9315 162.626V163.802C38.9677 164.222 39.1149 164.625 39.3582 164.969C39.6014 165.313 39.9318 165.587 40.3155 165.761C41.3603 166.288 42.5141 166.562 43.6841 166.562C44.8542 166.562 46.0079 166.288 47.0527 165.761C47.464 165.539 47.8203 165.228 48.0955 164.851C48.3192 164.553 48.4431 164.193 48.4494 163.821V162.626C48.4497 162.52 48.4369 162.414 48.4115 162.31C48.3189 161.956 48.1506 161.627 47.9182 161.344C47.6858 161.061 47.3948 160.833 47.0653 160.673L46.9958 160.635C45.9598 160.121 44.8187 159.853 43.662 159.853C42.5053 159.853 41.3642 160.121 40.3282 160.635C39.9989 160.793 39.7068 161.019 39.4715 161.297C39.2361 161.576 39.0628 161.902 38.9631 162.253C38.941 162.376 38.9304 162.501 38.9315 162.626Z" fill="#9CD91B"/>
<path opacity="0.1" d="M38.9315 162.626V163.802C38.9677 164.222 39.1149 164.625 39.3582 164.969C39.6014 165.313 39.9318 165.587 40.3155 165.761C41.3603 166.288 42.5141 166.562 43.6841 166.562C44.8542 166.562 46.0079 166.288 47.0527 165.761C47.464 165.539 47.8203 165.228 48.0955 164.851C48.3192 164.553 48.4431 164.193 48.4494 163.821V162.626C48.4497 162.52 48.4369 162.414 48.4115 162.31C48.3189 161.956 48.1506 161.627 47.9182 161.344C47.6858 161.061 47.3948 160.833 47.0653 160.673L46.9958 160.635C45.9598 160.121 44.8187 159.853 43.662 159.853C42.5053 159.853 41.3642 160.121 40.3282 160.635C39.9989 160.793 39.7068 161.019 39.4715 161.297C39.2361 161.576 39.0628 161.902 38.9631 162.253C38.941 162.376 38.9304 162.501 38.9315 162.626Z" fill="black"/>
<path opacity="0.2" d="M47.0523 164.585C48.9483 163.524 48.9483 161.779 47.0523 160.705C46.0116 160.172 44.86 159.891 43.6907 159.886C42.5214 159.88 41.3672 160.15 40.3215 160.673C38.4634 161.741 38.4255 163.479 40.3215 164.56C41.3623 165.094 42.5143 165.374 43.6839 165.378C44.8534 165.383 46.0075 165.111 47.0523 164.585Z" fill="black"/>
<path d="M38.9378 161.248V161.956C38.9253 162.068 38.9253 162.18 38.9378 162.291C39.0327 162.643 39.2027 162.971 39.4362 163.251C39.6696 163.532 39.961 163.758 40.2903 163.915C41.2055 164.414 42.2254 164.689 43.267 164.718C44.5684 164.813 45.8705 164.544 47.0274 163.941C47.4472 163.727 47.8159 163.425 48.1081 163.056C48.2612 162.847 48.3669 162.608 48.4178 162.354C48.446 162.247 48.4587 162.137 48.4557 162.026V161.299C48.4191 160.88 48.2716 160.478 48.0284 160.135C47.7851 159.792 47.4549 159.519 47.0717 159.346L46.8189 159.207C45.7985 158.739 44.6861 158.507 43.5638 158.526C42.4414 158.546 41.3379 158.817 40.3345 159.321C39.952 159.49 39.6212 159.757 39.3758 160.096C39.1304 160.435 38.9793 160.832 38.9378 161.248Z" fill="#9CD91B"/>
<path opacity="0.1" d="M38.9378 161.248V161.956C38.9253 162.068 38.9253 162.18 38.9378 162.291C39.0327 162.643 39.2027 162.971 39.4362 163.251C39.6696 163.532 39.961 163.758 40.2903 163.915C41.2055 164.414 42.2254 164.689 43.267 164.718C44.5684 164.813 45.8705 164.544 47.0274 163.941C47.4472 163.727 47.8159 163.425 48.1081 163.056C48.2612 162.847 48.3669 162.608 48.4178 162.354C48.446 162.247 48.4587 162.137 48.4557 162.026V161.299C48.4191 160.88 48.2716 160.478 48.0284 160.135C47.7851 159.792 47.4549 159.519 47.0717 159.346L46.8189 159.207C45.7985 158.739 44.6861 158.507 43.5638 158.526C42.4414 158.546 41.3379 158.817 40.3345 159.321C39.952 159.49 39.6212 159.757 39.3758 160.096C39.1304 160.435 38.9793 160.832 38.9378 161.248Z" fill="black"/>
<path d="M38.9375 161.223C38.9375 162.74 41.061 163.972 43.6901 163.979C46.3193 163.985 48.4554 162.772 48.4617 161.261C48.4681 159.751 46.3382 158.518 43.7091 158.506C41.08 158.493 38.9438 159.713 38.9375 161.223Z" fill="#9CD91B"/>
<path d="M42.0598 158.417V160.882C42.0539 160.922 42.0539 160.962 42.0598 161.002C42.0932 161.124 42.1522 161.237 42.2328 161.334C42.3135 161.431 42.414 161.509 42.5275 161.564C42.845 161.735 43.1975 161.83 43.5577 161.842C44.0083 161.873 44.4587 161.779 44.8596 161.571C45.0011 161.493 45.124 161.385 45.2198 161.255C45.2743 161.184 45.3131 161.102 45.3336 161.015C45.3367 160.977 45.3367 160.939 45.3336 160.901V158.43C45.3214 158.284 45.2703 158.145 45.1859 158.026C45.1014 157.907 44.9865 157.813 44.8533 157.753L44.7648 157.703C44.4115 157.542 44.0268 157.462 43.6387 157.468C43.2506 157.475 42.8688 157.568 42.5212 157.741C42.3923 157.804 42.282 157.899 42.2011 158.018C42.1202 158.136 42.0715 158.274 42.0598 158.417Z" fill="#9CD91B"/>
<path opacity="0.1" d="M42.0598 158.417V160.882C42.0539 160.922 42.0539 160.962 42.0598 161.002C42.0932 161.124 42.1522 161.237 42.2328 161.334C42.3135 161.431 42.414 161.509 42.5275 161.564C42.845 161.735 43.1975 161.83 43.5577 161.842C44.0083 161.873 44.4587 161.779 44.8596 161.571C45.0011 161.493 45.124 161.385 45.2198 161.255C45.2743 161.184 45.3131 161.102 45.3336 161.015C45.3367 160.977 45.3367 160.939 45.3336 160.901V158.43C45.3214 158.284 45.2703 158.145 45.1859 158.026C45.1014 157.907 44.9865 157.813 44.8533 157.753L44.7648 157.703C44.4115 157.542 44.0268 157.462 43.6387 157.468C43.2506 157.475 42.8688 157.568 42.5212 157.741C42.3923 157.804 42.282 157.899 42.2011 158.018C42.1202 158.136 42.0715 158.274 42.0598 158.417Z" fill="black"/>
<path d="M42.0596 158.411C42.0596 158.935 42.7927 159.359 43.7091 159.365C44.6255 159.371 45.3586 158.948 45.3586 158.423C45.3586 157.899 44.6255 157.469 43.7154 157.469C42.8053 157.469 42.0659 157.886 42.0596 158.411Z" fill="#9CD91B"/>
<path opacity="0.5" d="M43.1277 158.417C43.1277 158.6 43.3868 158.752 43.7091 158.752C44.0314 158.752 44.2969 158.607 44.2969 158.417C44.2969 158.228 44.0378 158.082 43.7091 158.082C43.3805 158.082 43.1277 158.228 43.1277 158.417Z" fill="#9CD91B"/>
<path opacity="0.3" d="M43.1277 158.417C43.1277 158.6 43.3868 158.752 43.7091 158.752C44.0314 158.752 44.2969 158.607 44.2969 158.417C44.2969 158.228 44.0378 158.082 43.7091 158.082C43.3805 158.082 43.1277 158.228 43.1277 158.417Z" fill="black"/>
<path d="M123.113 141.113C123.113 141.113 127.48 105.62 126.488 92.6574C125.982 86.015 122.771 84.5045 117.854 84.8837C112.937 85.2629 84.8135 100.21 84.8135 100.21L88.7951 109.879L112.223 102.529C112.223 102.529 109.841 116.338 109.291 118.961C108.741 121.584 107.584 125.117 106.674 128.283C106.226 129.838 105.6 131.867 105.6 132.846C105.6 135.159 123.113 141.113 123.113 141.113Z" fill="#FFA8A7"/>
<path d="M112.224 102.529C115.479 101.897 118.74 100.001 119.764 98.4399C119.234 100.167 118.069 101.628 116.503 102.529C115.016 103.489 113.442 104.306 111.801 104.969L112.224 102.529Z" fill="#F28F8F"/>
<path d="M167.378 140.487C166.885 138.68 163.713 136.777 154.258 135.185C144.803 133.592 136.202 135.185 136.158 136.303C136.113 137.422 138.49 144.905 149.385 146.264C160.281 147.622 168.377 144.45 167.378 140.487Z" fill="#263238"/>
<path d="M138.938 155.851C138.938 155.851 132.776 115.877 133.661 107.718C134.578 99.2871 137.775 95.375 143.141 94.8252C150.15 98.9016 153.885 108.628 158.366 118.209C162.847 127.79 167.707 148.362 167.96 158.19C168.213 168.017 160.452 175.013 151.642 176.296C142.831 177.579 138.938 155.851 138.938 155.851Z" fill="#FFA8A7"/>
<path d="M148.621 124.561C145.775 122.275 143.853 119.035 143.211 115.441L152.002 112.376L157.949 117.325C158.006 117.451 158.063 117.577 158.126 117.704L158.354 118.203C158.524 118.563 158.695 118.949 158.866 119.347L159.017 119.688L159.409 120.636L159.542 120.965C159.712 121.407 159.889 121.85 160.06 122.317C160.231 122.779 160.408 123.253 160.578 123.739C160.578 123.84 160.648 123.948 160.686 124.049C160.837 124.485 160.989 124.921 161.141 125.376C161.141 125.439 161.185 125.503 161.204 125.572C161.564 126.64 161.912 127.753 162.259 128.896L162.316 129.08C162.481 129.642 162.651 130.211 162.816 130.78C162.816 130.78 154.65 129.604 148.621 124.561Z" fill="#F28F8F"/>
<path d="M141.309 95.1726C144.652 93.8454 148.735 96.9422 150.89 98.3326C155.263 101.139 182.047 122.007 188.292 126.899C189.644 127.714 191.022 128.504 192.425 129.25L185.068 140.752C184.463 139.099 183.515 137.591 182.288 136.328C175.614 131.563 162.696 128.966 154.378 125.73C147.913 123.202 146.561 121.786 144.374 118.089C142.68 115.188 136.657 97.3593 141.309 95.1726Z" fill="#FFA8A7"/>
<path d="M138.799 156.066L136.157 136.303C136.157 136.303 138.527 141.757 150.763 143.186C162.998 144.614 167.688 142.554 167.378 140.487C167.378 140.487 170.576 152.855 169.337 160.901C168.098 168.946 155.831 177.497 155.831 177.497L138.799 156.066Z" fill="#37474F"/>
<path opacity="0.15" d="M144.216 158.752C143.097 158.752 142.041 158.821 141.056 158.885L154.656 175.999H157.816C161.336 173.193 168.415 166.905 169.338 160.901C170.241 155.004 168.769 146.788 167.916 142.819C168.402 147.37 158.202 158.48 144.216 158.752Z" fill="black"/>
<path d="M205.475 112.534C201.051 111.712 198.997 114.898 197.36 117.533C195.724 120.168 193 125.003 191.786 125.825C190.573 126.646 189.89 125.825 188.146 127.133C186.402 128.441 185.138 130.925 185.675 131.829L186.939 134.022C186.212 133.946 185.478 134.041 184.794 134.299C184.111 134.557 183.497 134.97 183.001 135.507C181.105 137.403 182.091 137.725 183.159 138.793C184.227 139.862 186.737 144.722 189.252 146.049C189.252 146.049 196.021 144.014 200.938 136.335C205.855 128.656 205.475 112.534 205.475 112.534Z" fill="#9CD91B"/>
<path d="M190.636 147.066C190.377 147.02 190.13 146.919 189.912 146.772C189.693 146.625 189.508 146.433 189.368 146.21C189.227 145.987 189.135 145.737 189.097 145.477C189.058 145.216 189.074 144.95 189.145 144.696C189.899 142.326 191.028 140.093 192.488 138.079C194.194 135.671 197.379 131.127 197.917 128.65C198.454 126.172 199.61 119.208 201.5 116.294C203.39 113.381 205.33 111.7 207.82 112.635C210.31 113.57 202.448 132.227 200.141 135.387C197.835 138.547 190.636 147.066 190.636 147.066Z" fill="#37474F"/>
<path d="M192.09 146.662C198.315 143.344 200.369 140.114 202.202 135.918C204.034 131.721 208.338 127.835 209.444 124.061C210.55 120.288 210.677 110.613 206.398 112.957C202.119 115.302 201.228 123.954 199.345 128.953C197.462 133.952 185.984 149.917 192.09 146.662Z" fill="#263238"/>
<path d="M154.675 156.9C157.525 156.47 162.992 157.646 167.947 164.573C173.275 172.011 174.267 184.992 170.93 186.061C170.93 186.061 163.175 185.144 157.86 182.363C152.545 179.583 143.596 160.717 154.675 156.9Z" fill="#263238"/>
<path d="M245.569 218.811C237.309 215.569 230.559 210.001 224.713 203.769C220.017 197.38 199.869 170.046 196.368 166.197C195.104 164.832 192.114 161.324 187.962 160.44C173.256 157.317 146.042 157.754 146.042 157.754L135.576 155.99L114.72 175.62C117.595 178.679 121.21 181.352 126.481 184.108C131.752 186.863 137.472 188.848 145.163 188.197C160.571 186.895 169.811 182.541 178.065 180.613C180.454 180.057 182.932 179.545 184.809 183.463C186.686 187.382 186.837 189.341 192.393 193.512C199.522 198.859 211.277 204.838 216.409 211.208C217.255 212.769 217.759 214.493 217.887 216.264C218.374 222.976 224.012 221.661 228.556 224.581C231.027 226.168 232.872 228.101 235.855 228.765C238.571 229.324 241.378 229.272 244.071 228.613C246.492 228.032 249.974 226.288 251.162 223.924C252.717 220.783 247.933 219.746 245.569 218.811Z" fill="#FFA8A7"/>
<path d="M245.569 218.811C237.309 215.569 230.559 210.001 224.713 203.769C220.017 197.38 199.869 170.046 196.368 166.197C195.104 164.832 192.114 161.324 187.962 160.44C173.256 157.317 146.042 157.754 146.042 157.754L135.576 155.99L114.72 175.62C117.595 178.679 121.21 181.352 126.481 184.108C131.752 186.863 137.472 188.848 145.163 188.197C160.571 186.895 169.811 182.541 178.065 180.613C180.454 180.057 182.932 179.545 184.809 183.463C186.686 187.382 186.837 189.341 192.393 193.512C199.522 198.859 211.277 204.838 216.409 211.208C217.255 212.769 217.759 214.493 217.887 216.264C218.374 222.976 224.012 221.661 228.556 224.581C231.027 226.168 232.872 228.101 235.855 228.765C238.571 229.324 241.378 229.272 244.071 228.613C246.492 228.032 249.974 226.288 251.162 223.924C252.717 220.783 247.933 219.746 245.569 218.811Z" fill="#FFA8A7"/>
<path d="M191.9 190.333C190.332 188.599 189.144 186.556 188.412 184.335C187.845 182.484 187.115 180.686 186.231 178.963C183.665 174.539 166.639 180.183 159.099 182.496C158.676 183.128 156.913 185.024 156.274 186.598C165.413 184.74 171.986 182.022 178.034 180.613C180.423 180.057 182.901 179.545 184.778 183.463C186.655 187.382 186.806 189.341 192.362 193.512C195.256 195.68 198.922 197.936 202.594 200.325C198.486 197.146 195.389 193.954 191.9 190.333Z" fill="#F28F8F"/>
<path d="M137.175 155.99C137.175 155.99 152.141 156.717 154.675 156.9C154.675 156.9 149.05 158.423 155.901 172.264C162.752 186.105 170.936 186.042 170.936 186.042C160.192 189.473 154.612 193.335 140.916 191.73C124.592 189.372 114.688 177.149 114.688 177.149L137.175 155.99Z" fill="#455A64"/>
<path opacity="0.15" d="M170.892 186.042L170.519 186.01C169.3 185.865 165.678 185.075 161.608 180.746C158.392 181.618 155.127 182.304 151.831 182.8C139.627 184.588 130.463 182.439 116.825 175.165L114.714 177.143C120.131 183.251 127.079 187.802 134.843 190.327C135.317 190.478 135.797 190.617 136.29 190.756C136.752 190.883 137.213 190.997 137.687 191.11L137.807 191.142C138.243 191.243 138.686 191.332 139.128 191.414L139.362 191.464C139.874 191.559 140.398 191.648 140.929 191.723C141.782 191.825 142.61 191.907 143.407 191.964C144.203 192.02 144.968 192.065 145.707 192.084H146.807H147.862C148.905 192.084 149.897 192.002 150.852 191.907C151.484 191.844 152.116 191.768 152.748 191.673C154.207 191.451 155.652 191.148 157.077 190.763C157.633 190.611 158.183 190.453 158.733 190.289C160.104 189.872 161.457 189.398 162.847 188.898L164.534 188.266C166.525 187.533 168.63 186.762 170.981 186.01L170.892 186.042Z" fill="black"/>
<path d="M87.1587 137.144C81.0788 139.261 75.3276 142.946 80.1688 153.753C87.1587 169.344 118.632 186.667 134.818 190.346C126.602 177.914 133.44 164.737 138.799 156.079L137.39 145.524C137.39 145.524 132.53 143.192 124.491 136.973C116.452 130.754 113.128 129.067 101.151 132.72C92.9352 135.197 87.1587 137.144 87.1587 137.144Z" fill="#9CD91B"/>
<path opacity="0.05" d="M111.782 172.384C95.2359 162.904 90.0346 154.461 83.5439 146.352L79.2969 151.541C79.4106 151.874 79.537 152.215 79.6761 152.565V152.621C79.8214 152.988 79.9731 153.355 80.1438 153.74C83.2026 160.559 90.9446 167.714 100.045 173.914C101.347 174.798 102.672 175.662 104.021 176.505C104.697 176.928 105.373 177.339 106.049 177.769C110.683 180.553 115.478 183.06 120.408 185.277C125.035 187.408 129.85 189.101 134.793 190.333C132.992 187.659 131.789 184.628 131.266 181.447C125.521 179.696 119.359 176.732 111.782 172.384Z" fill="black"/>
<path d="M82.5893 139.248C82.5893 139.248 62.182 128.34 58.9525 126.874L76.7875 116.389L72.9955 106.549C72.9955 106.549 46.4515 115.984 41.3955 118.696C38.7474 120.124 37.6035 121.312 37.6035 123.347C37.6035 126.735 40.833 131.14 45.3013 134.951C54.8192 143.059 67.7246 150.605 80.2888 157.532C83.1707 159.668 86.1727 162.354 86.1727 162.354C89.5097 163.991 94.3129 148.703 82.5893 139.248Z" fill="#FFA8A7"/>
<path d="M101.694 101.341C101.063 99.876 100.149 98.5494 99.0055 97.4372C97.8617 96.325 96.5099 95.449 95.0275 94.8592C93.5451 94.2694 91.961 93.9773 90.3657 93.9997C88.7704 94.0221 87.1952 94.3585 85.7299 94.9897C84.2646 95.6209 82.938 96.5345 81.8258 97.6784C80.7136 98.8222 79.8376 100.174 79.2478 101.656C78.658 103.139 78.3659 104.723 78.3883 106.318C78.4107 107.913 78.7471 109.489 79.3783 110.954C79.4668 111.15 79.5679 111.34 79.6627 111.529L76.5722 118.241L72.0471 109.842C72.0476 109.179 71.8023 108.539 71.3587 108.047C70.9152 107.554 70.3048 107.243 69.6455 107.175C69.3114 107.147 68.9752 107.188 68.6572 107.294C68.3392 107.4 68.0461 107.57 67.7956 107.792C67.545 108.015 67.3423 108.286 67.1997 108.59C67.0571 108.893 66.9775 109.222 66.9658 109.557L70.4481 109.854C69.6884 110.364 69.1054 111.097 68.7797 111.953C67.9454 114.114 70.8273 118.519 74.6952 122.387C74.6952 122.387 80.162 130.104 81.4829 131.191C82.338 131.842 83.41 132.14 84.4785 132.025L84.8072 116.857C87.0269 118.055 89.5647 118.532 92.068 118.221C94.5712 117.911 96.9156 116.828 98.7754 115.124C100.635 113.42 101.918 111.179 102.446 108.712C102.973 106.246 102.719 103.676 101.719 101.36L101.694 101.341Z" fill="#263238"/>
<path d="M79.265 120.876C78.7594 121.578 77.2173 120.687 75.9975 120.168C74.7778 119.65 71.504 119.625 71.3776 123.107C71.2512 126.589 75.5362 129.427 77.9947 129.168C82.2291 128.732 81.7867 126.103 81.7867 126.103L88.0371 139.849C95.2356 143.799 108.634 137.593 100.595 133.693L98.819 129.598C100.354 129.184 101.838 128.599 103.243 127.853C105.771 126.248 106.593 123.341 106.15 120.01C105.43 114.664 104.254 110.594 99.1034 101.682C93.4154 91.9369 81.4075 96.9802 76.7243 103.831C72.0412 110.682 79.265 120.876 79.265 120.876Z" fill="#FFA8A7"/>
<path d="M79.7576 122.026C79.4163 122.178 77.179 120.573 75.9656 120.168C74.3224 119.6 71.6617 109.241 71.6617 109.241C71.6617 109.241 69.4939 107.345 70.682 103.844C71.668 100.987 75.283 99.0849 77.7857 97.8209C82.2982 95.5393 87.3416 92.9355 89.5599 88.1576C89.7305 87.7847 89.9897 87.3486 90.4004 87.3423C90.6638 87.371 90.906 87.5 91.0767 87.7025C92.1148 88.8721 92.7019 90.3734 92.7325 91.9369C92.7325 92.0886 92.7768 92.2656 92.9158 92.3098C93.0549 92.354 93.1749 92.234 93.2571 92.1328C93.7183 91.5724 94.068 90.9288 94.2873 90.2368C94.5969 89.2952 96.1833 91.6905 96.3033 92.0191C96.6761 93.0599 96.8369 94.1647 96.7761 95.2686C96.7153 96.3724 96.4342 97.453 95.9494 98.4465C94.9635 100.418 92.9285 101.651 91.0767 102.731C86.9371 105.146 79.8587 107.44 78.8728 107.718C77.5329 108.091 77.7857 109.431 78.5505 113.084C79.252 116.288 80.8952 121.502 79.7576 122.026Z" fill="#263238"/>
<path d="M98.7877 129.598C98.7877 129.598 91.3933 131.165 88.7579 130.95C87.2167 130.833 85.7462 130.256 84.5361 129.294C85.3976 130.405 86.4719 131.334 87.6961 132.025C90.123 133.352 99.4766 131.228 99.4766 131.228L98.7877 129.598Z" fill="#F28F8F"/>
<path d="M87.2155 110.36L84.9971 112.755C84.6803 112.447 84.4949 112.028 84.4795 111.587C84.4642 111.145 84.6203 110.714 84.915 110.385C85.0615 110.227 85.2385 110.101 85.4353 110.014C85.6321 109.927 85.8446 109.881 86.0598 109.878C86.275 109.876 86.4884 109.917 86.6871 110C86.8858 110.083 87.0656 110.205 87.2155 110.36Z" fill="#263238"/>
<path d="M94.3125 122.608L97.5673 122.45C97.5881 122.664 97.5652 122.881 97.5001 123.086C97.4351 123.292 97.3291 123.482 97.1886 123.646C97.0481 123.809 96.8759 123.943 96.6825 124.038C96.4891 124.133 96.2784 124.189 96.0631 124.2C95.622 124.213 95.1933 124.054 94.8668 123.757C94.5404 123.46 94.3417 123.048 94.3125 122.608Z" fill="#F28F8F"/>
<path d="M100.62 106.549L97.46 105.734C97.5021 105.524 97.5866 105.324 97.7085 105.148C97.8303 104.972 97.9869 104.822 98.1685 104.709C98.3502 104.595 98.5531 104.52 98.7649 104.487C98.9767 104.455 99.1929 104.466 99.4002 104.52C99.8239 104.639 100.186 104.915 100.413 105.292C100.64 105.67 100.714 106.119 100.62 106.549Z" fill="#263238"/>
<path d="M93.8768 111.497L96.032 119.252L99.8176 116.951L93.8768 111.497Z" fill="#F28F8F"/>
<path d="M87.8475 114.967C87.8463 115.248 87.9286 115.524 88.0841 115.759C88.2396 115.993 88.4613 116.177 88.721 116.285C88.9807 116.394 89.2668 116.423 89.5431 116.369C89.8193 116.315 90.0733 116.18 90.2728 115.981C90.4723 115.782 90.6084 115.529 90.6637 115.253C90.7191 114.977 90.6913 114.691 90.5839 114.431C90.4765 114.17 90.2942 113.948 90.0602 113.791C89.8262 113.635 89.5511 113.551 89.2695 113.551C88.8935 113.551 88.5328 113.7 88.2663 113.966C87.9998 114.231 87.8492 114.591 87.8475 114.967Z" fill="#263238"/>
<path d="M98.1238 110.96C98.1238 111.23 98.2038 111.494 98.3538 111.719C98.5038 111.943 98.717 112.118 98.9665 112.221C99.2159 112.325 99.4904 112.352 99.7552 112.299C100.02 112.246 100.263 112.116 100.454 111.925C100.645 111.734 100.775 111.491 100.828 111.226C100.88 110.962 100.853 110.687 100.75 110.438C100.647 110.188 100.472 109.975 100.247 109.825C100.023 109.675 99.7589 109.595 99.4889 109.595C99.1268 109.595 98.7796 109.739 98.5236 109.995C98.2676 110.251 98.1238 110.598 98.1238 110.96Z" fill="#263238"/>
<path d="M217.047 217.673C216.51 218.04 217.338 220.359 217.824 220.922C218.836 221.91 220.089 222.616 221.458 222.969C223.947 223.735 226.273 224.952 228.322 226.559C230.838 228.605 233.768 230.08 236.911 230.882C240.646 231.71 244.95 230.648 248.716 228.424C252.66 226.085 252.293 223.854 251.75 222.356L217.047 217.673Z" fill="#37474F"/>
<path d="M225.579 204.692C226.843 206.038 233.719 212.832 238.997 214.57C243.193 215.948 248.666 217.256 251.055 219.822C253.545 222.489 249.842 225.902 244.735 227.855C239.414 229.896 235.799 228.247 232.266 226.477C229.782 225.213 226.123 222.685 224.284 221.668C222.445 220.65 219.038 220.088 217.616 218.577C216.832 217.749 216.27 215.417 215.929 213.382C215.619 211.486 214.368 209.767 215.006 209.666L216.036 210.797C220.852 211.72 225.857 207.252 225.579 204.692Z" fill="#9CD91B"/>
<path d="M58.9529 126.874C55.9341 128.506 52.674 129.645 49.2959 130.249C49.2959 130.249 54.6553 131.62 61.0637 127.898L58.9529 126.874Z" fill="#F28F8F"/>
</svg>
