<svg xmlns="http://www.w3.org/2000/svg" version="1.0" preserveAspectRatio="xMidYMid meet" width="240.000000pt" height="240.000000pt" viewBox="30 37 190.61 157.94">

<g transform="translate(0.000000,256.000000) scale(0.100000,-0.100000)" fill="#9CD91B" stroke="none">
<path d="M763 2035 c-63 -27 -86 -101 -55 -182 19 -51 19 -51 -1 -83 l-20 -31 23 -16 c13 -9 38 -29 56 -45 32 -28 32 -29 16 -61 -9 -17 -15 -48 -15 -67 l1 -35 -23 46 c-29 55 -87 109 -119 109 -19 0 -30 -14 -60 -73 -47 -93 -54 -156 -31 -276 11 -55 16 -119 13 -165 l-3 -76 132 0 c122 0 133 1 133 18 0 18 5 18 85 7 l85 -11 0 40 c0 23 5 48 10 56 7 12 -6 19 -71 37 -45 12 -82 23 -84 25 -5 6 -27 420 -22 425 3 2 17 -3 32 -13 27 -17 28 -17 46 7 11 13 22 34 25 47 5 17 11 21 26 16 17 -5 18 -2 12 45 -4 35 -3 51 5 51 6 0 11 16 11 38 0 26 6 41 20 50 28 17 25 43 -8 75 -53 51 -154 71 -219 42z m48 -155 c23 -13 25 -43 3 -61 -31 -26 -70 25 -44 56 15 18 16 18 41 5z"/>
<path d="M782 1849 c2 -6 8 -10 13 -10 5 0 11 4 13 10 2 6 -4 11 -13 11 -9 0 -15 -5 -13 -11z"/>
<path d="M1710 2026 c-69 -26 -166 -64 -189 -75 -45 -22 -7 -61 59 -61 l48 0 -9 -34 c-15 -53 -18 -156 -5 -156 6 0 17 -12 24 -27 7 -16 19 -37 27 -47 14 -19 15 -19 51 0 21 11 38 15 41 9 14 -39 21 -39 80 0 32 22 62 42 67 46 4 4 0 21 -10 37 -17 30 -17 32 9 90 32 70 34 125 7 169 -42 69 -105 85 -200 49z m95 -211 c0 -25 -4 -30 -24 -30 -28 0 -47 25 -38 49 5 12 16 16 34 14 24 -3 28 -8 28 -33z"/>
<path d="M1762 1818 c6 -18 28 -21 28 -4 0 9 -7 16 -16 16 -9 0 -14 -5 -12 -12z"/>
<path d="M1286 1733 c-12 -12 -6 -33 9 -33 8 0 15 6 15 14 0 17 -14 28 -24 19z"/>
<path d="M626 1701 c-3 -5 11 -18 32 -28 20 -11 52 -39 70 -62 36 -48 44 -32 9 20 -25 37 -102 86 -111 70z"/>
<path d="M1283 1682 c-15 -10 -26 -82 -13 -82 5 0 10 -7 10 -15 0 -12 -15 -15 -74 -15 l-73 0 -6 -62 c-32 -322 -28 -299 -55 -309 -14 -6 -32 -7 -40 -4 -23 8 -42 -14 -42 -50 0 -32 1 -33 68 -49 73 -17 114 -20 126 -9 10 11 128 3 142 -8 7 -5 34 -12 62 -16 47 -5 49 -4 56 22 9 37 18 26 10 -13 l-6 -32 -528 0 c-290 0 -548 -3 -574 -6 -36 -5 -46 -11 -46 -25 0 -18 13 -19 233 -20 127 0 446 -5 707 -10 261 -6 492 -10 513 -11 22 0 46 7 57 17 17 16 59 159 49 169 -2 2 -27 7 -55 11 l-52 7 -9 -39 c-10 -43 8 -41 -178 -22 -90 9 -103 13 -127 38 -15 16 -25 31 -22 34 6 5 44 318 44 360 l0 27 -75 0 c-72 0 -85 5 -66 26 4 5 6 26 4 46 -5 36 -21 52 -40 40z m157 -139 c0 -15 -30 -268 -36 -305 -6 -37 -7 -38 -49 -38 -52 0 -69 -17 -23 -23 18 -2 -10 -4 -62 -4 -52 0 -85 2 -72 4 39 8 24 23 -22 23 -25 0 -48 5 -51 10 -4 6 1 85 11 175 l17 165 143 0 c79 0 144 -3 144 -7z m-150 -411 c0 -14 -9 -17 -50 -18 -27 -1 -50 0 -50 2 0 23 17 34 56 34 35 0 44 -3 44 -18z"/>
<path d="M1274 1479 c-10 -17 13 -36 27 -22 12 12 4 33 -11 33 -5 0 -12 -5 -16 -11z"/>
<path d="M1242 1395 c-15 -32 -15 -38 -2 -30 12 8 13 -11 1 -53 -6 -20 -6 -32 0 -32 5 0 9 4 9 9 0 12 29 41 40 41 5 0 10 -10 12 -22 2 -12 8 -23 14 -25 8 -3 9 9 3 39 -12 65 -11 75 6 52 17 -23 19 -14 3 21 -11 25 -28 34 -28 15 0 -5 -7 -10 -15 -10 -8 0 -15 5 -15 10 0 19 -17 10 -28 -15z"/>
<path d="M1896 1622 c-75 -41 -85 -61 -112 -223 -33 -199 -33 -199 14 -199 20 0 47 -3 59 -6 13 -4 23 -1 26 8 2 7 2 2 1 -12 -2 -14 -11 -81 -19 -150 -8 -69 -18 -144 -20 -166 l-6 -42 -107 -47 c-166 -74 -255 -121 -280 -147 -21 -23 -22 -31 -16 -96 l7 -72 153 0 154 0 0 49 c0 57 -21 46 198 96 83 19 163 42 177 51 133 87 95 634 -60 869 -34 51 -97 115 -113 115 -4 0 -29 -13 -56 -28z"/>
<path d="M358 953 c9 -3 12 -62 12 -244 l0 -240 43 3 42 3 3 238 2 237 160 0 160 0 0 -240 0 -240 45 0 45 0 2 238 3 237 300 5 c240 4 187 6 -265 7 -311 1 -559 -1 -552 -4z"/>
<path d="M1917 556 c-50 -14 -97 -50 -97 -74 0 -12 26 -14 170 -10 93 2 173 8 177 12 4 4 3 14 -3 23 -30 48 -160 73 -247 49z"/>
</g>
</svg>